<?xml version="1.0" encoding="UTF-8"?>
<!DOCTYPE svg PUBLIC "-//W3C//DTD SVG 1.1//EN" "http://www.w3.org/Graphics/SVG/1.1/DTD/svg11.dtd">
<!-- Creator: CorelDRAW 2018 (64 Bit) -->
<svg xmlns="http://www.w3.org/2000/svg" xml:space="preserve" width="280.934mm" height="52.0265mm" version="1.1" style="shape-rendering:geometricPrecision; text-rendering:geometricPrecision; image-rendering:optimizeQuality; fill-rule:evenodd; clip-rule:evenodd"
viewBox="0 0 588727.92 109027.38"
 xmlns:xlink="http://www.w3.org/1999/xlink">
 <defs>
  <style type="text/css">
   <![CDATA[
    .fil0 {fill:#FFD002}
   ]]>
  </style>
 </defs>
 <g id="Camada_x0020_1">
  <metadata id="CorelCorpID_0Corel-Layer"/>
  <path class="fil0" d="M414180.39 51986.9c17018.47,7324.37 42050.98,38956.18 21976.9,52118.93 -12271.91,8046.73 -21682.04,-4775.27 -24879.95,-14655.87 -3025.85,-9349.16 -2780.46,-30736.56 2903.05,-37463.05zm-313638.15 -3402.65c1378.49,-15257.94 11397.83,-38010.22 27028.79,-44337.29 6648.96,-2691.39 14416.56,-2070.46 18851.92,2607.99 9252.34,9759.48 597.88,25619.91 -8513.22,31347.85 -9504.23,5975.22 -24296.32,9322.54 -37367.49,10381.45zm-100542.24 -1838.48l0 2776.06c47933.15,4296.84 48380.14,4490.69 97069.18,2363.22 -1747.74,16481.99 -4671.75,39123.83 5304.62,49902.19 10069.42,10878.95 32738.28,5778.44 46853.28,874.71 27897.63,-9692.42 54323.51,-24583.63 79931.47,-36897.66 25051.58,-12046.63 54120.24,-27135.67 84972.68,-31777.03 16934.22,-2547.43 37148.71,-2984.36 53923.04,484.09 12720.37,2629.99 35601.31,8920.81 43294.3,15931.05 -3264.54,13107.85 -8355.63,24065.17 -2107.14,41112.35 2508.87,6844.69 5366.23,11523.77 9949.13,14432.69 17194.5,10913.53 36712.4,-8800.1 21142,-33643.8 -4124.58,-6580.85 -11856.97,-13907.95 -17881.65,-18342.27 -2266.2,-1668.11 -5651.03,-3386.09 -7164.69,-5035.76 5504.75,-12765.84 17706.67,-27091.03 30887.02,-32297.16 34708.58,-13709.5 91662.08,12187.66 122465.91,29472.27l20088.75 12235.65 0 -3344.39 -20121.86 -11842.51c-7018.62,-3942.27 -14109.13,-7231.12 -21426.59,-11083.69 -26288.2,-13841.31 -73069.18,-29230.44 -102952.61,-17377.87 -8663.26,3435.97 -13321.18,8502.95 -18249.22,13534.51 -4171.74,4259.33 -10567.96,12950.26 -12939.57,19343.76 -14948.84,-5658.78 -20807.96,-11352.77 -42824.26,-15284.98 -18737.08,-3346.48 -35409.77,-3818.21 -54567.02,-1148.19 -30685.42,4276.94 -60252,18766.84 -84941.46,30995.78 -19151.17,9485.79 -61046.24,30423.89 -79213.94,36880.68 -12817.39,4555.44 -35039.27,11617.45 -46159.21,2036.31 -8979.07,-7736.37 -9105.23,-35547.87 -5190.83,-49611.11 14564.51,-1790.7 29841.1,-4433.9 40232.19,-11524.4 8015.09,-5469.34 18837.88,-23415.74 8018.23,-35016.01 -8308.47,-8907.82 -25755.91,-5125.66 -35308.13,7053.2 -7525.13,9594.55 -13141.38,21813.23 -15355.81,36975.82 -35449.59,2866.38 -62886.18,992.27 -97727.83,-2177.55z"/>
 </g>
</svg>
